<svg width="390" height="58" viewBox="0 0 390 58" fill="none" xmlns="http://www.w3.org/2000/svg">
<g clip-path="url(#clip0_6686_400)">
<path d="M106.313 42.7411H113.302L106.942 31.2691C107.03 31.2258 107.132 31.197 107.22 31.1538C108.843 30.4044 110.086 29.3234 110.934 27.9255C111.796 26.5131 112.22 24.8413 112.22 22.8812C112.22 20.9212 111.796 19.2349 110.963 17.7937C110.115 16.3525 108.901 15.2284 107.293 14.4357C105.684 13.643 103.754 13.2539 101.503 13.2539H89.7031V42.7556H96.0342V32.3068H100.655L106.328 42.7556L106.313 42.7411ZM96.0196 18.3414H100.289C101.503 18.3414 102.512 18.5143 103.316 18.8746C104.12 19.2205 104.719 19.7394 105.114 20.4023C105.509 21.0797 105.714 21.9012 105.714 22.8812C105.714 23.8612 105.509 24.6683 105.114 25.3169C104.719 25.9654 104.12 26.4554 103.33 26.7869C102.526 27.1184 101.532 27.2769 100.318 27.2769H96.0196V18.3414Z" fill="#CA3917"/>
<path d="M175.137 42.9599H182.433L173.69 30.4213L182.009 20.8517H174.859L167.68 29.2395H167.344V13.4727H161.115V42.9599H167.344V35.9412L169.025 34.0388L175.137 42.9599Z" fill="#CA3917"/>
<path d="M22.1074 57.3431L33.9216 45.6981L65.2263 45.7845C66.7031 45.7845 68.0775 45.208 69.101 44.156C70.1245 43.1039 70.6509 41.7203 70.5778 40.2503C70.4462 37.4831 67.9167 35.2349 64.9193 35.2349H45.0778L56.892 23.5898L64.9193 23.6763C74.2332 23.6763 81.8656 30.7239 82.3043 39.7026C82.5236 44.3577 80.8567 48.7678 77.5961 52.1259C74.394 55.4407 69.8759 57.3431 65.2409 57.3431H22.1074Z" fill="url(#paint0_linear_6686_400)"/>
<path d="M0 57.5C20.7479 36.4871 20.6164 36.2421 20.5579 36.1268C20.5579 36.1268 19.4028 36.0836 18.8325 36.0836C15.0163 36.0836 9.56248 33.8641 5.9802 28.9207C4.31335 26.6292 3.20211 24.0638 2.76347 21.5273C1.82769 16.2092 3.23136 11.0353 6.69666 6.98546C10.2204 2.86359 15.4257 0.5 20.9526 0.5H78.7808L66.952 12.145L20.938 12.0585C17.4435 12.0585 14.373 14.7968 14.2121 18.0396C14.0952 20.4608 15.3234 22.637 17.502 23.8765C18.4085 24.3953 19.4905 24.6547 20.7187 24.6547H32.9131C35.3987 24.6547 37.6212 25.7212 38.864 27.4939C40.7356 30.1746 40.4578 33.6623 38.1914 35.9971L16.3761 57.5H0Z" fill="url(#paint1_linear_6686_400)"/>
<path d="M217.276 38.1883C217.173 38.2028 217.071 38.2316 216.939 38.246C216.647 38.3036 216.354 38.3181 216.062 38.3181C215.638 38.3181 215.272 38.2604 214.965 38.1307C214.644 38.001 214.41 37.7848 214.234 37.4821C214.059 37.1651 213.971 36.7327 213.971 36.1706V25.4624H218.197V20.8505H213.971V15.5469H207.742V20.8505H204.672V25.4624H207.742V36.9777C207.742 38.4333 208.035 39.6296 208.664 40.5808C209.292 41.532 210.155 42.2382 211.281 42.6849C212.407 43.1317 213.723 43.3335 215.214 43.2758C216.018 43.247 216.705 43.1749 217.276 43.0452V38.2028V38.1883Z" fill="#CA3917"/>
<path d="M123.64 20.5742C117.25 20.5742 112.074 25.6761 112.074 31.9742C112.074 38.2723 117.25 43.3742 123.64 43.3742C130.029 43.3742 135.205 38.2723 135.205 31.9742C135.205 25.6761 130.029 20.5742 123.64 20.5742ZM123.64 38.3156C120.087 38.3156 117.206 35.4764 117.206 31.9742C117.206 28.4721 120.087 25.6329 123.64 25.6329C127.193 25.6329 130.073 28.4721 130.073 31.9742C130.073 35.4764 127.193 38.3156 123.64 38.3156Z" fill="#CA3917"/>
<path d="M153.877 34.0063C153.014 36.4996 150.645 38.3156 147.823 38.3156C144.27 38.3156 141.39 35.4764 141.39 31.9742C141.39 28.4721 144.27 25.6329 147.823 25.6329C150.645 25.6329 153.014 27.4344 153.877 29.9421H159.184C158.205 24.624 153.497 20.5742 147.823 20.5742C141.434 20.5742 136.258 25.6761 136.258 31.9742C136.258 38.2723 141.434 43.3742 147.823 43.3742C153.497 43.3742 158.219 39.3388 159.184 34.0063H153.877Z" fill="#CA3917"/>
<path d="M203.093 34.0063H203.795C203.912 33.3434 203.985 32.666 203.985 31.9742C203.985 25.6761 198.809 20.5742 192.419 20.5742C186.03 20.5742 180.854 25.6761 180.854 31.9742C180.854 38.2723 186.03 43.3742 192.419 43.3742C197.507 43.3742 201.821 40.1315 203.371 35.6205H197.668C196.499 37.2491 194.598 38.3156 192.419 38.3156C189.597 38.3156 187.228 36.514 186.366 34.0063H203.093ZM192.419 25.6329C195.241 25.6329 197.61 27.4344 198.472 29.9421H186.351C187.214 27.4488 189.583 25.6329 192.405 25.6329H192.419Z" fill="#CA3917"/>
<path d="M237.79 22.4223C237.673 21.2549 237.176 20.3614 236.284 19.7128C235.392 19.0643 234.193 18.7472 232.672 18.7472C231.634 18.7472 230.771 18.8914 230.055 19.1796C229.338 19.4678 228.797 19.857 228.432 20.347C228.052 20.8514 227.876 21.4135 227.876 22.0476C227.862 22.5809 227.964 23.042 228.213 23.4312C228.461 23.8203 228.797 24.1662 229.236 24.44C229.675 24.7283 230.186 24.9733 230.757 25.175C231.327 25.3768 231.941 25.5498 232.599 25.7083L235.289 26.3424C236.591 26.6307 237.79 27.0198 238.886 27.4954C239.983 27.971 240.919 28.5619 241.723 29.2681C242.527 29.9743 243.141 30.7958 243.58 31.747C244.018 32.6982 244.252 33.7935 244.252 35.0185C244.252 36.8201 243.77 38.391 242.863 39.7025C241.957 41.014 240.612 42.0517 238.886 42.7723C237.161 43.4929 235.07 43.8532 232.643 43.8532C230.216 43.8532 228.125 43.4929 226.341 42.7579C224.557 42.0228 223.153 40.9419 222.159 39.5151C221.165 38.0739 220.639 36.3012 220.58 34.1826H226.707C226.78 35.1771 227.072 35.9986 227.569 36.6471C228.081 37.3101 228.768 37.8001 229.631 38.1316C230.493 38.463 231.473 38.6216 232.555 38.6216C233.637 38.6216 234.558 38.463 235.348 38.1604C236.137 37.8577 236.751 37.4254 237.19 36.8777C237.629 36.33 237.848 35.6959 237.848 34.9897C237.848 34.3267 237.643 33.7647 237.249 33.3179C236.854 32.8711 236.284 32.482 235.523 32.1649C234.763 31.8479 233.842 31.5596 232.76 31.3002L229.499 30.4931C226.97 29.8878 224.981 28.9366 223.519 27.6539C222.057 26.3713 221.326 24.6274 221.34 22.4511C221.34 20.664 221.808 19.1075 222.788 17.7672C223.768 16.4269 225.113 15.3892 226.823 14.6398C228.534 13.8903 230.493 13.5156 232.672 13.5156C234.851 13.5156 236.839 13.8903 238.491 14.6398C240.144 15.3892 241.445 16.4269 242.366 17.7672C243.287 19.1075 243.77 20.6496 243.799 22.4079H237.731L237.79 22.4223Z" fill="#EE730B"/>
<path d="M389.487 27.6242L383.785 27.9701C383.683 27.4945 383.478 27.0621 383.156 26.673C382.834 26.2839 382.41 25.9668 381.899 25.7362C381.372 25.5056 380.758 25.3759 380.042 25.3759C379.077 25.3759 378.258 25.5777 377.6 25.9668C376.942 26.3703 376.606 26.8892 376.606 27.5521C376.606 28.0854 376.825 28.5322 377.249 28.8925C377.673 29.2528 378.419 29.5554 379.457 29.7716L383.522 30.5787C385.7 31.0255 387.323 31.7317 388.405 32.7117C389.473 33.6917 390.014 34.9744 390.014 36.5741C390.014 38.0298 389.575 39.298 388.712 40.3934C387.85 41.4887 386.665 42.339 385.174 42.9443C383.683 43.5496 381.957 43.8523 380.013 43.8523C377.044 43.8523 374.676 43.247 372.921 42.0219C371.166 40.7969 370.128 39.1251 369.836 37.0209L375.962 36.7038C376.152 37.5974 376.591 38.2748 377.308 38.736C378.024 39.1971 378.931 39.4422 380.042 39.4422C381.153 39.4422 382.016 39.226 382.674 38.808C383.332 38.3901 383.683 37.8568 383.697 37.1939C383.697 36.6318 383.449 36.185 382.981 35.8247C382.513 35.4644 381.796 35.1906 380.817 35.0032L376.927 34.2394C374.734 33.807 373.111 33.0576 372.044 31.9911C370.976 30.9246 370.45 29.5698 370.45 27.9124C370.45 26.4856 370.845 25.2606 371.62 24.2373C372.409 23.2141 373.506 22.4214 374.939 21.8593C376.372 21.2973 378.039 21.0234 379.954 21.0234C382.791 21.0234 385.028 21.6143 386.651 22.7961C388.288 23.9779 389.239 25.5921 389.502 27.6242H389.487Z" fill="#EE730B"/>
<path d="M284.359 22.3789V33.3177C284.359 34.4707 284.198 35.4939 283.876 36.3875C283.554 37.2955 283.087 38.0161 282.458 38.5349C281.829 39.0537 281.054 39.3132 280.133 39.3132C279.212 39.3132 278.408 39.0537 277.764 38.5349C277.121 38.0161 276.653 37.2955 276.331 36.3875C276.01 35.4939 275.849 34.4563 275.849 33.3177V22.3789H270.146V33.3321C270.146 35.3787 270.556 37.1658 271.36 38.7079C272.164 40.25 273.319 41.4606 274.811 42.3109C276.302 43.1756 278.071 43.608 280.104 43.608C282.136 43.608 283.92 43.1756 285.411 42.3109C286.903 41.4462 288.043 40.25 288.862 38.7079C289.666 37.1658 290.076 35.3642 290.076 31.0838V22.3789H284.373H284.359Z" fill="#EE730B"/>
<path d="M256.974 21.2695C250.584 21.2695 245.408 26.3714 245.408 32.6695C245.408 38.9676 250.584 44.0695 256.974 44.0695C263.363 44.0695 268.539 38.9676 268.539 32.6695C268.539 26.3714 263.363 21.2695 256.974 21.2695ZM256.974 38.9965C253.421 38.9965 250.54 36.1573 250.54 32.6551C250.54 29.153 253.421 26.3138 256.974 26.3138C260.527 26.3138 263.407 29.153 263.407 32.6551C263.407 36.1573 260.527 38.9965 256.974 38.9965Z" fill="#EE730B"/>
<path d="M324.393 34.4855C323.604 37.0941 321.176 39.0109 318.267 39.0109C314.714 39.0109 311.833 36.1717 311.833 32.6695C311.833 29.1674 314.714 26.3282 318.267 26.3282C321.016 26.3282 323.34 28.0288 324.262 30.4212H329.598C328.546 25.204 323.867 21.2695 318.267 21.2695C311.877 21.2695 306.701 26.3714 306.701 32.6695C306.701 38.9676 311.877 44.0695 318.267 44.0695C324.028 44.0695 328.78 39.9188 329.672 34.4855H324.393Z" fill="#EE730B"/>
<path d="M305.034 21.9469C304.683 21.9036 304.361 21.8892 304.054 21.8892C303.075 21.8892 302.022 21.846 301.072 22.1198C300.867 22.1775 300.662 22.2495 300.472 22.3504C300.458 22.3504 300.443 22.3504 300.414 22.3648C299.639 22.7539 299.01 23.3737 298.615 24.1375V22.1919H292.781V42.6139H298.805V31.4877C298.805 30.6086 299.01 29.8447 299.405 29.1673C299.8 28.5044 300.355 27.9711 301.042 27.5964C301.73 27.2217 302.519 27.0343 303.411 27.0343C303.82 27.0343 304.288 27.0632 304.786 27.1352C305.283 27.2073 305.677 27.2793 305.955 27.3658V22.091C305.692 22.0189 305.385 21.9757 305.034 21.9324V21.9469Z" fill="#EE730B"/>
<path d="M369.252 24.5831V22.0898C368.989 22.0177 368.682 21.9745 368.331 21.9312C367.98 21.888 367.658 21.8736 367.351 21.8736C366.372 21.8736 365.319 21.8303 364.369 22.1042C364.164 22.1618 363.959 22.2339 363.769 22.3348C363.754 22.3348 363.74 22.3348 363.711 22.3492C362.936 22.7383 362.307 23.358 361.912 24.1219V22.1762H356.078V42.5982H362.102V31.4721C362.102 30.5929 362.307 29.8291 362.702 29.1517C363.096 28.4888 363.652 27.9555 364.339 27.5808C365.026 27.2061 365.816 27.0187 366.708 27.0187C367.117 27.0187 367.585 27.0475 368.082 27.1196C368.58 27.1917 368.974 27.2637 369.252 27.3502V24.5687V24.5831Z" fill="#EE730B"/>
<path d="M353.358 34.7016H354.06C354.177 34.0387 354.25 33.3613 354.25 32.6695C354.25 26.3714 349.074 21.2695 342.685 21.2695C336.295 21.2695 331.119 26.3714 331.119 32.6695C331.119 38.9676 336.295 44.0695 342.685 44.0695C347.773 44.0695 352.086 40.8268 353.636 36.3158H347.934C346.764 37.9444 344.863 39.0109 342.685 39.0109C339.863 39.0109 337.494 37.2094 336.631 34.7016H353.358ZM342.699 26.3282C345.521 26.3282 347.89 28.1297 348.753 30.6374H336.631C337.494 28.1441 339.863 26.3282 342.685 26.3282H342.699Z" fill="#EE730B"/>
</g>
<defs>
<linearGradient id="paint0_linear_6686_400" x1="22.1074" y1="40.4665" x2="82.3189" y2="40.4665" gradientUnits="userSpaceOnUse">
<stop stop-color="#EE7203"/>
<stop offset="1" stop-color="#C70C0F"/>
</linearGradient>
<linearGradient id="paint1_linear_6686_400" x1="0" y1="28.9928" x2="78.7954" y2="28.9928" gradientUnits="userSpaceOnUse">
<stop stop-color="#EE7203"/>
<stop offset="1" stop-color="#C70C0F"/>
</linearGradient>
<clipPath id="clip0_6686_400">
<rect width="390" height="57" fill="white" transform="translate(0 0.5)"/>
</clipPath>
</defs>
</svg>
